<?xml version="1.0" standalone="no"?>
<!DOCTYPE svg PUBLIC "-//W3C//DTD SVG 20010904//EN"
 "http://www.w3.org/TR/2001/REC-SVG-20010904/DTD/svg10.dtd">
<svg version="1.0" xmlns="http://www.w3.org/2000/svg"
 width="840.000000pt" height="840.000000pt" viewBox="0 0 840.000000 840.000000"
 preserveAspectRatio="xMidYMid meet">
<metadata>
Created by potrace 1.14, written by Peter Selinger 2001-2017
</metadata>
<g transform="translate(0.000000,840.000000) scale(0.100000,-0.100000)"
fill="#000000" stroke="none">
<path d="M2378 7435 c-2 -2 -30 -5 -63 -9 -33 -3 -69 -8 -80 -10 -11 -2 -42
-7 -68 -10 -64 -10 -74 -12 -126 -26 -25 -6 -54 -13 -66 -14 -11 -1 -25 -5
-30 -8 -6 -3 -37 -13 -70 -22 -229 -64 -539 -228 -740 -390 -27 -23 -58 -48
-69 -56 -36 -29 -202 -196 -249 -250 -26 -30 -72 -89 -102 -130 -30 -41 -59
-80 -64 -86 -4 -5 -14 -21 -21 -35 -7 -13 -16 -26 -19 -29 -14 -12 -162 -297
-174 -335 -3 -11 -20 -58 -37 -105 -34 -95 -76 -245 -85 -306 -3 -21 -9 -46
-12 -54 -3 -8 -7 -26 -8 -40 -2 -14 -6 -47 -9 -75 -26 -191 -23 -430 6 -620 6
-38 11 -82 12 -97 0 -16 5 -28 9 -28 5 0 6 -4 3 -8 -2 -4 7 -50 20 -102 14
-52 27 -102 29 -110 16 -62 127 -334 147 -357 6 -7 7 -13 2 -13 -5 0 -4 -4 1
-8 13 -9 48 -72 41 -72 -3 0 3 -9 14 -20 12 -12 18 -25 15 -30 -3 -4 -2 -10 2
-12 8 -3 100 -136 118 -169 5 -11 13 -19 17 -19 5 0 8 -4 8 -9 0 -5 12 -22 28
-38 15 -16 54 -60 87 -98 33 -38 91 -98 129 -134 38 -36 79 -76 92 -88 13 -13
26 -23 28 -23 6 0 47 -33 78 -62 10 -10 22 -18 26 -18 5 0 17 -9 27 -20 10
-11 23 -20 30 -20 7 0 20 -9 29 -19 10 -11 33 -27 52 -36 19 -9 34 -20 34 -26
0 -6 4 -8 9 -4 5 3 16 -1 24 -9 8 -8 17 -12 21 -9 3 4 6 1 6 -5 0 -6 9 -13 20
-17 10 -3 51 -23 89 -44 38 -22 72 -36 75 -33 3 3 6 -1 6 -8 0 -7 3 -11 6 -8
5 5 31 -4 119 -42 25 -11 88 -30 98 -30 4 0 20 -6 35 -13 15 -8 33 -12 40 -10
6 3 12 1 12 -4 0 -6 6 -10 13 -10 28 -2 93 -16 107 -23 8 -4 33 -11 55 -14 22
-4 54 -9 70 -12 31 -6 46 -8 160 -20 87 -9 390 -9 468 0 37 4 57 3 58 -4 3
-19 5 -25 19 -50 7 -14 12 -25 11 -25 -1 0 2 -11 7 -25 18 -49 70 -196 85
-240 8 -25 35 -102 60 -172 25 -71 44 -128 41 -128 -2 0 3 -11 12 -25 9 -14
13 -25 9 -25 -4 0 -3 -6 2 -12 8 -10 31 -68 38 -98 1 -3 4 -12 8 -20 13 -34
57 -160 77 -220 12 -36 26 -74 30 -85 5 -11 18 -49 30 -85 12 -36 25 -74 30
-85 5 -11 18 -47 30 -80 11 -33 23 -67 27 -75 3 -8 7 -21 9 -28 1 -8 6 -21 10
-30 4 -9 9 -26 11 -36 2 -11 7 -24 11 -30 5 -6 14 -31 22 -56 7 -25 17 -49 22
-55 4 -5 8 -16 8 -25 0 -26 31 -83 54 -99 11 -8 28 -23 38 -33 10 -10 18 -16
18 -13 0 2 19 -4 41 -14 49 -22 193 -22 249 -1 3 1 8 2 13 1 4 0 7 4 7 10 0 6
6 9 13 6 11 -3 84 32 115 57 38 31 92 97 92 113 0 7 4 13 8 13 10 0 10 0 16
85 3 39 -1 69 -10 87 -8 15 -16 35 -17 45 -4 18 -8 28 -34 98 -9 22 -17 47
-17 55 -1 9 -5 21 -10 28 -4 6 -4 12 1 12 4 0 3 4 -2 8 -11 7 -61 152 -57 165
1 4 -3 7 -8 7 -6 0 -10 6 -9 13 1 6 -3 25 -9 40 -7 16 -12 33 -12 38 0 5 -4
17 -10 27 -9 16 -50 132 -55 156 -1 6 -7 23 -13 37 -6 15 -12 35 -14 45 -2 11
-6 21 -10 24 -4 3 -9 15 -11 25 -2 11 -7 27 -10 35 -3 8 -17 51 -32 95 -14 44
-30 89 -35 100 -5 11 -23 63 -40 115 -17 52 -36 103 -41 113 -5 10 -7 22 -4
27 3 4 -1 14 -8 22 -7 7 -14 16 -15 21 -1 4 -2 8 -3 10 0 1 -2 9 -4 17 -2 8
-6 24 -9 35 -3 11 -14 45 -26 75 -12 30 -23 66 -26 79 -3 13 -9 31 -13 40 -5
9 -9 18 -9 21 0 3 -5 18 -11 33 -6 16 -11 32 -11 37 0 7 26 22 43 24 4 1 12 8
17 16 5 8 10 11 10 6 0 -5 7 -3 15 4 8 7 15 9 15 4 0 -5 4 -4 8 2 4 6 27 22
52 34 58 29 203 121 212 135 4 5 8 6 8 2 0 -4 11 4 25 19 14 15 25 23 25 18 0
-5 4 -4 8 1 16 21 95 89 86 75 -4 -8 18 11 49 43 31 33 57 56 57 52 0 -3 6 0
14 7 8 7 13 18 13 23 -1 6 4 9 11 8 6 -2 12 2 12 7 0 6 12 23 28 39 46 47 102
114 102 122 0 4 10 15 22 23 12 9 19 16 14 16 -5 0 3 12 18 26 14 15 26 32 26
38 0 6 9 18 19 26 11 7 18 17 15 22 -3 4 2 11 10 14 9 3 14 10 11 14 -3 5 -1
11 4 15 5 3 16 18 24 33 8 15 30 55 50 90 20 34 36 63 35 65 0 1 10 22 23 47
13 25 23 48 24 52 0 3 3 10 8 14 4 4 7 16 7 26 0 10 5 18 12 18 6 0 9 3 5 6
-3 4 3 24 14 45 11 22 17 39 13 39 -4 0 -2 6 4 13 6 6 10 14 10 17 0 11 15 66
21 75 3 6 7 16 8 23 5 23 9 37 16 57 3 11 9 32 12 48 3 15 8 39 11 55 4 15 8
36 9 47 2 11 4 20 5 20 1 0 3 9 4 20 2 11 7 40 11 65 10 62 14 98 21 225 13
212 4 368 -33 570 -3 17 -7 39 -9 50 -4 26 -10 52 -23 93 -5 17 -7 32 -4 32 3
0 0 7 -7 15 -7 8 -10 15 -7 15 4 0 -12 51 -34 113 -22 61 -41 116 -42 122 -1
5 -8 16 -15 23 -7 8 -10 18 -7 23 4 5 1 9 -4 9 -6 0 -10 3 -9 8 1 4 -6 24 -15
45 -9 20 -15 39 -14 40 1 2 -6 11 -16 21 -9 10 -15 22 -12 27 4 5 2 9 -3 9 -4
0 -14 16 -22 35 -8 19 -16 35 -19 35 -3 0 -17 21 -31 48 -13 26 -42 71 -62
100 -21 28 -36 52 -34 52 3 0 -8 15 -25 32 -16 18 -29 39 -29 47 0 8 -3 11 -7
8 -3 -4 -21 13 -38 38 -18 24 -35 42 -39 38 -3 -3 -6 -1 -6 6 0 7 -16 27 -35
45 -19 18 -32 36 -28 40 3 3 -1 6 -10 6 -8 0 -19 9 -22 21 -4 11 -9 19 -11 16
-3 -2 -27 18 -54 44 -28 27 -50 46 -50 44 0 -3 -12 6 -27 20 -16 14 -45 40
-65 59 -20 19 -38 32 -40 30 -2 -2 -19 10 -36 26 -18 16 -32 27 -32 24 0 -4
-122 75 -147 96 -7 6 -15 10 -18 10 -13 1 -41 15 -47 24 -4 6 -11 11 -15 11
-4 0 -44 18 -88 39 -44 21 -89 42 -100 46 -11 4 -36 15 -55 23 -137 59 -371
116 -585 143 -47 6 -422 14 -427 9z m362 -599 c219 -20 463 -94 660 -199 69
-37 232 -145 284 -189 64 -53 199 -189 241 -243 22 -27 43 -52 46 -55 4 -3 33
-45 64 -95 93 -143 190 -361 221 -495 21 -89 44 -214 50 -269 12 -117 6 -330
-11 -420 -2 -10 -6 -36 -9 -57 -23 -141 -97 -350 -180 -504 -31 -59 -132 -212
-168 -257 -46 -56 -221 -229 -266 -263 -26 -19 -49 -38 -52 -41 -17 -22 -197
-128 -292 -173 -128 -61 -233 -98 -352 -126 -156 -36 -267 -48 -430 -45 -158
3 -199 8 -338 36 -333 69 -644 238 -892 485 -43 44 -57 59 -122 139 -175 215
-316 543 -349 815 -4 30 -9 58 -12 63 -8 13 -6 287 2 357 14 116 20 146 47
250 60 231 186 480 330 655 54 65 189 199 251 248 271 218 630 362 952 383 44
3 81 6 82 8 4 4 175 -2 243 -8z"/>
<path d="M3159 6371 c-11 -9 -51 -101 -95 -221 -95 -257 -94 -253 -81 -276 32
-58 85 -47 119 24 11 26 20 50 19 55 0 4 6 24 16 45 9 20 17 39 17 42 11 45
82 220 90 221 6 1 68 0 138 -1 116 -1 128 0 146 20 26 28 23 59 -8 81 -36 27
-331 35 -361 10z"/>
<path d="M2368 6215 c-2 -2 -23 -5 -48 -8 -156 -19 -288 -85 -410 -207 -88
-89 -143 -187 -164 -295 -14 -67 -14 -181 -2 -235 3 -14 8 -36 12 -50 3 -14 6
-32 7 -40 8 -62 149 -101 280 -76 38 7 136 35 172 49 116 46 363 191 430 253
14 13 28 24 31 24 9 0 96 95 126 139 41 58 69 134 67 179 -5 86 -220 235 -369
257 -54 7 -128 13 -132 10z m108 -129 c36 -4 105 -32 171 -70 11 -6 39 -27 60
-46 33 -29 38 -39 33 -60 -8 -29 -50 -100 -50 -85 0 6 -6 -1 -13 -15 -13 -25
-178 -173 -185 -165 -2 2 -11 -3 -19 -11 -17 -17 -179 -113 -196 -117 -7 -1
-15 -6 -18 -10 -3 -5 -12 -10 -20 -11 -8 -2 -32 -11 -54 -21 -143 -63 -304
-76 -311 -24 -1 5 -2 10 -4 12 -6 8 -12 51 -15 114 -3 73 20 183 37 183 5 0 7
4 4 9 -9 15 60 112 120 168 101 94 297 171 399 156 11 -2 38 -5 61 -7z"/>
<path d="M3405 6018 c-38 -23 -74 -45 -80 -50 -5 -5 -44 -31 -85 -58 -119 -78
-136 -105 -97 -147 22 -25 55 -26 88 -3 15 11 32 20 38 20 6 0 11 4 11 8 0 5
12 15 28 23 15 8 29 16 32 19 3 3 30 21 60 40 30 19 57 38 60 41 3 4 12 9 20
11 45 10 78 91 48 116 -33 25 -55 22 -123 -20z"/>
<path d="M3500 5849 c-25 -18 -48 -37 -52 -43 -4 -6 -8 -8 -8 -4 0 4 -12 -4
-27 -18 -16 -13 -46 -39 -69 -57 -34 -27 -40 -37 -37 -62 5 -33 28 -54 59 -55
18 0 47 19 149 97 6 5 19 15 29 23 16 12 20 12 30 -1 6 -9 18 -20 27 -25 16
-9 126 -104 186 -161 18 -17 33 -29 33 -26 0 3 13 -7 28 -23 62 -65 118 -82
146 -43 8 12 12 31 9 43 -2 11 -5 27 -5 33 -1 7 -3 11 -6 8 -5 -4 -84 61 -161
133 -20 18 -64 56 -98 84 -35 28 -63 55 -63 60 0 4 -5 8 -11 8 -7 0 -22 11
-35 25 -38 41 -72 42 -124 4z"/>
<path d="M2903 5798 c-15 -17 -51 -55 -79 -85 -28 -29 -49 -53 -47 -53 4 0
-15 -17 -100 -86 -9 -8 -22 -14 -28 -14 -5 0 -8 -4 -4 -9 3 -5 -4 -13 -16 -16
-11 -4 -28 -14 -37 -22 -53 -46 -87 -69 -182 -117 -94 -48 -220 -100 -260
-108 -8 -2 -17 -6 -20 -9 -9 -10 -133 -42 -180 -46 -32 -3 -52 -12 -68 -30
-22 -24 -22 -31 -17 -127 3 -55 8 -112 10 -126 2 -14 9 -56 15 -95 6 -38 18
-101 27 -140 9 -38 16 -76 16 -82 0 -7 4 -13 9 -13 5 0 8 -6 7 -12 -1 -7 2
-24 8 -38 55 -131 68 -160 86 -190 11 -19 29 -45 40 -57 11 -13 17 -23 13 -23
-5 0 23 -31 62 -68 125 -121 252 -171 421 -166 89 2 219 27 288 56 102 41 205
89 234 109 14 10 29 16 33 12 3 -3 6 -1 6 5 0 7 4 12 9 12 14 0 124 74 201
134 128 100 204 189 260 302 146 295 28 611 -345 923 -44 36 -109 86 -145 111
-36 24 -68 49 -72 54 -5 7 -8 7 -8 1 0 -6 -3 -6 -8 0 -8 12 -59 37 -84 41 -9
2 -29 -11 -45 -28z m87 -128 c0 -5 5 -10 10 -10 15 0 150 -100 150 -111 0 -6
4 -8 9 -5 5 4 58 -42 118 -101 118 -118 173 -181 173 -200 0 -7 4 -13 8 -13
10 0 48 -80 44 -92 -1 -5 2 -8 7 -8 11 0 44 -128 36 -141 -4 -5 -2 -9 2 -9 9
0 1 -103 -12 -155 -24 -94 -117 -219 -234 -315 -24 -19 -49 -40 -56 -47 -7 -7
-15 -9 -19 -6 -3 4 -6 2 -6 -4 0 -16 -280 -181 -280 -165 0 4 -4 2 -8 -4 -9
-13 -149 -67 -205 -78 -7 -2 -30 -6 -51 -11 -55 -11 -153 -13 -204 -3 -51 9
-162 57 -162 69 0 5 -5 9 -11 9 -18 0 -79 63 -72 74 3 6 3 8 -2 4 -7 -7 -35
14 -35 27 0 4 -13 25 -28 48 -53 78 -95 185 -128 324 -24 103 -29 135 -39 248
-3 33 -8 72 -10 87 -4 24 0 28 33 38 20 5 71 20 112 32 41 12 81 22 88 21 6 0
12 3 12 8 0 5 5 9 11 9 11 0 131 50 190 80 l35 18 21 -32 c42 -64 83 -137 83
-146 0 -6 5 -10 10 -10 6 0 10 -4 10 -10 0 -8 137 -250 170 -300 6 -8 20 -34
32 -57 12 -24 26 -43 31 -43 4 0 6 -4 3 -9 -3 -5 1 -14 9 -21 8 -7 15 -19 15
-26 0 -8 3 -14 8 -14 4 0 16 -19 27 -43 38 -81 85 -107 125 -67 33 33 31 42
-69 210 -30 52 -55 98 -53 103 1 4 -3 7 -8 7 -6 0 -10 7 -10 15 0 8 -4 15 -10
15 -5 0 -10 4 -10 10 0 5 -20 43 -45 85 -24 41 -42 75 -40 75 3 0 -3 9 -13 20
-9 12 -15 23 -14 27 2 3 -1 9 -6 12 -10 6 -152 250 -152 261 0 3 17 16 38 27
20 12 46 30 57 40 11 10 52 43 90 74 39 31 100 86 137 122 65 64 88 79 88 57z"/>
<path d="M1270 5270 c-17 -16 -28 -30 -25 -30 7 0 -58 -124 -67 -128 -5 -2 -8
-9 -8 -16 0 -7 -13 -32 -28 -57 -42 -66 -26 -112 44 -125 6 -1 16 1 21 5 13 7
113 187 113 201 0 6 5 10 10 10 6 0 10 7 10 15 0 20 27 19 168 -6 64 -11 128
-22 142 -25 97 -17 131 -17 150 1 44 39 8 104 -60 111 -19 2 -46 6 -59 8 -13
3 -49 8 -80 12 -31 3 -59 8 -62 10 -3 2 -24 6 -45 9 -21 2 -50 7 -64 10 -14 3
-45 8 -69 11 -25 3 -48 7 -52 10 -4 2 -22 -9 -39 -26z"/>
<path d="M1603 4961 c-94 -47 -178 -92 -187 -100 -20 -17 -21 -64 -1 -81 9 -7
26 -14 39 -15 33 -4 344 153 367 185 25 34 15 73 -20 87 -25 9 -46 1 -198 -76z"/>
<path d="M1753 4804 c-18 -8 -33 -11 -33 -7 0 5 -4 3 -8 -3 -4 -6 -49 -28 -99
-49 -51 -21 -90 -41 -88 -46 3 -4 1 -10 -4 -13 -12 -8 -10 -26 29 -211 10 -49
21 -108 25 -130 18 -103 40 -199 50 -215 12 -19 48 -28 77 -18 25 9 27 12 23
66 -3 55 -11 103 -20 130 -2 7 -7 34 -11 59 -3 26 -10 59 -15 72 -5 13 -7 26
-5 28 3 3 1 15 -3 27 -5 12 -12 43 -15 70 -4 27 -9 53 -11 56 -4 7 19 17 125
61 62 25 90 51 90 84 0 45 -51 64 -107 39z"/>
<path d="M5925 7132 c-28 -3 -32 -8 -59 -90 -24 -75 -47 -137 -81 -227 -5 -11
-9 -24 -10 -30 -3 -10 -84 -240 -130 -365 -13 -36 -40 -112 -60 -170 -20 -58
-45 -127 -55 -155 -11 -27 -40 -108 -65 -180 -25 -71 -53 -150 -62 -175 -10
-25 -18 -49 -20 -55 -7 -29 -87 -251 -92 -255 -3 -3 -7 -14 -9 -25 -1 -11 -7
-29 -12 -40 -19 -44 -80 -219 -80 -232 0 -7 -4 -13 -8 -13 -5 0 -9 -6 -9 -13
0 -11 -64 -195 -164 -472 -16 -44 -45 -125 -63 -180 -19 -55 -39 -112 -45
-125 -16 -40 -161 -448 -188 -530 -14 -41 -31 -88 -38 -105 -17 -38 -134 -375
-137 -395 -3 -13 50 -15 413 -16 l416 0 22 65 c12 36 23 73 25 81 3 8 39 123
81 255 42 132 87 274 100 315 l24 75 741 0 c647 0 743 -2 750 -15 4 -8 38
-107 75 -220 36 -113 70 -214 75 -225 8 -19 33 -94 35 -105 1 -8 56 -173 66
-200 l10 -26 414 0 c228 0 415 1 415 2 0 8 -52 152 -60 166 -6 10 -10 27 -10
37 0 11 -4 23 -10 26 -5 3 -10 15 -10 26 0 10 -5 27 -10 37 -9 16 -38 92 -110
297 -15 44 -43 118 -60 165 -18 47 -35 96 -37 110 -3 14 -9 30 -13 35 -3 6
-17 39 -29 75 -12 36 -26 74 -31 85 -5 11 -23 61 -40 110 -18 50 -50 140 -72
200 -22 61 -41 117 -43 125 -2 8 -4 16 -5 18 -2 1 -3 5 -4 10 -1 4 -4 12 -7
17 -5 8 -29 75 -34 95 -1 3 -5 12 -8 20 -17 40 -166 459 -172 483 -4 15 -11
30 -16 33 -5 3 -9 15 -9 28 0 12 -4 26 -10 32 -5 5 -11 18 -13 29 -2 11 -11
37 -20 59 -9 21 -17 41 -17 44 0 5 -116 329 -167 465 -13 37 -26 73 -27 80 -2
6 -8 23 -13 37 -10 24 -84 227 -145 400 -17 47 -44 120 -60 163 -17 44 -31 84
-32 90 -2 7 -7 23 -13 37 -6 14 -25 67 -43 118 l-33 92 -221 0 c-121 1 -315 2
-431 3 -115 1 -223 1 -240 -1z m659 -1463 c80 -245 146 -452 146 -460 0 -8 4
-19 9 -24 4 -6 19 -44 32 -85 12 -41 23 -77 24 -80 1 -3 4 -12 8 -20 10 -26
87 -265 87 -270 0 -7 -1047 -6 -1054 1 -4 4 109 364 115 364 0 0 2 7 4 15 1 8
31 98 65 200 34 102 63 190 64 195 1 6 37 118 80 250 43 132 83 256 89 275 6
19 15 39 19 45 4 5 8 17 8 28 0 10 5 28 12 40 7 12 13 28 14 35 4 23 37 127
47 146 11 22 -3 59 231 -655z"/>
</g>
</svg>
